# xmcd
#
# Track frame offsets: 
#        183
#        21965
#        41068
#        61373
#        81108
#        98358
#        117483
#        138665
#
# Disc length: 2153 seconds
#
# Revision: 4
# Processed by: cddbd v1.5.2PL0 Copyright (c) Steve Scherf et al.
# Submitted via: ExactAudioCopy v1.3
#
DISCID=67086708
DTITLE=譚詠麟 - Alan Tam Remix
DYEAR=1990
DGENRE=Pop
TTITLE0=卡拉永遠OK 
TTITLE1=你知我知
TTITLE2=魔鬼之女
TTITLE3=都市獵人
TTITLE4=冷傲的化妝
TTITLE5=應有此報
TTITLE6=午夜皇后
TTITLE7=萬能的妳 
EXTD=
EXTT0=
EXTT1=
EXTT2=
EXTT3=
EXTT4=
EXTT5=
EXTT6=
EXTT7=
PLAYORDER=
